<svg width="168.9924530029297px" height="144.98113708496095px" xmlns="http://www.w3.org/2000/svg" viewBox="165.50377349853517 2.5094314575195256 168.9924530029297 144.98113708496095" style="background: rgba(0, 0, 0, 0);" preserveAspectRatio="xMidYMid"><defs><linearGradient id="editing-outline-gradient" x1="0.8255681544571565" x2="0.17443184554284358" y1="-0.44551857559931685" y2="1.445518575599317"><stop offset="0" stop-color="#08eee4"></stop><stop offset="1" stop-color="#4139ff"></stop></linearGradient><filter id="editing-outline" x="-100%" y="-100%" width="300%" height="300%"><feMorphology in="SourceGraphic" operator="dilate" radius="8" result="outline"></feMorphology><feComposite operator="out" in="outline" in2="SourceAlpha"></feComposite></filter></defs><g filter="url(#editing-outline)"><g transform="translate(195.2250075340271, 99.20999908447266)"><path d="M28.29-47.60L28.29-47.60Q40.39-47.60 46.99-41.41L46.99-41.41L46.99-41.41Q53.58-35.22 53.58-23.39L53.58-23.39L53.58-23.39Q53.58-11.56 46.99-5.37L46.99-5.37L46.99-5.37Q40.39 0.82 28.29 0.82L28.29 0.82L28.29 0.82Q16.18 0.82 9.62-5.34L9.62-5.34L9.62-5.34Q3.06-11.49 3.06-23.39L3.06-23.39L3.06-23.39Q3.06-35.29 9.62-41.45L9.62-41.45L9.62-41.45Q16.18-47.60 28.29-47.60L28.29-47.60ZM28.29-36.38L28.29-36.38Q23.46-36.38 20.94-33.46L20.94-33.46L20.94-33.46Q18.43-30.53 18.43-25.57L18.43-25.57L18.43-21.22L18.43-21.22Q18.43-16.25 20.94-13.33L20.94-13.33L20.94-13.33Q23.46-10.40 28.29-10.40L28.29-10.40L28.29-10.40Q33.12-10.40 35.67-13.33L35.67-13.33L35.67-13.33Q38.22-16.25 38.22-21.22L38.22-21.22L38.22-25.57L38.22-25.57Q38.22-30.53 35.67-33.46L35.67-33.46L35.67-33.46Q33.12-36.38 28.29-36.38L28.29-36.38ZM83.98-47.60L83.98-47.60Q94.38-47.60 100.44-42.40L100.44-42.40L100.44-42.40Q106.49-37.20 106.49-27.54L106.49-27.54L92.14-27.54L92.14-27.54Q92.14-31.62 90.00-34L90.00-34L90.00-34Q87.86-36.38 83.91-36.38L83.91-36.38L83.91-36.38Q79.36-36.38 77.21-33.52L77.21-33.52L77.21-33.52Q75.07-30.67 75.07-25.57L75.07-25.57L75.07-21.22L75.07-21.22Q75.07-16.18 77.21-13.29L77.21-13.29L77.21-13.29Q79.36-10.40 83.78-10.40L83.78-10.40L83.78-10.40Q88.13-10.40 90.37-12.65L90.37-12.65L90.37-12.65Q92.62-14.89 92.62-18.97L92.62-18.97L106.49-18.97L106.49-18.97Q106.49-9.38 100.61-4.28L100.61-4.28L100.61-4.28Q94.72 0.82 83.98 0.82L83.98 0.82L83.98 0.82Q72.01 0.82 65.86-5.30L65.86-5.30L65.86-5.30Q59.70-11.42 59.70-23.39L59.70-23.39L59.70-23.39Q59.70-35.36 65.86-41.48L65.86-41.48L65.86-41.48Q72.01-47.60 83.98-47.60L83.98-47.60Z" fill="url(#editing-outline-gradient)"></path></g></g><style>text {
  font-size: 64px;
  font-family: Arial Black;
  dominant-baseline: central;
  text-anchor: middle;
}</style></svg>