<svg width="934.570654296875px" height="223.23018798828124px" xmlns="http://www.w3.org/2000/svg" viewBox="-217.2853271484375 -36.61509399414062 934.570654296875 223.23018798828124" style="background: rgba(0, 0, 0, 0);" preserveAspectRatio="xMidYMid"><defs><linearGradient id="editing-outline-gradient" x1="0.17443184554284324" x2="0.8255681544571567" y1="-0.44551857559931674" y2="1.4455185755993167"><stop offset="0" stop-color="#08d5ee"></stop><stop offset="1" stop-color="#4139ff"></stop></linearGradient><filter id="editing-outline" x="-100%" y="-100%" width="300%" height="300%"><feMorphology in="SourceGraphic" operator="dilate" radius="8" result="outline"></feMorphology><feComposite operator="out" in="outline" in2="SourceAlpha"></feComposite></filter></defs><g filter="url(#editing-outline)"><g transform="translate(-88.3572998046875, 115.9599938094616)"><path d="M46.18-77.70L46.18-77.70Q65.93-77.70 76.70-67.60L76.70-67.60L76.70-67.60Q87.47-57.50 87.47-38.18L87.47-38.18L87.47-38.18Q87.47-18.87 76.70-8.77L76.70-8.77L76.70-8.77Q65.93 1.33 46.18 1.33L46.18 1.33L46.18 1.33Q26.42 1.33 15.71-8.71L15.71-8.71L15.71-8.71Q5.00-18.76 5.00-38.18L5.00-38.18L5.00-38.18Q5.00-57.61 15.71-67.65L15.71-67.65L15.71-67.65Q26.42-77.70 46.18-77.70L46.18-77.70ZM46.18-59.38L46.18-59.38Q38.30-59.38 34.19-54.61L34.19-54.61L34.19-54.61Q30.08-49.84 30.08-41.74L30.08-41.74L30.08-34.63L30.08-34.63Q30.08-26.53 34.19-21.76L34.19-21.76L34.19-21.76Q38.30-16.98 46.18-16.98L46.18-16.98L46.18-16.98Q54.06-16.98 58.22-21.76L58.22-21.76L58.22-21.76Q62.38-26.53 62.38-34.63L62.38-34.63L62.38-41.74L62.38-41.74Q62.38-49.84 58.22-54.61L58.22-54.61L58.22-54.61Q54.06-59.38 46.18-59.38L46.18-59.38ZM139.53-59.94L139.53-59.94Q149.74-59.94 154.84-54.28L154.84-54.28L154.84-54.28Q159.95-48.62 159.95-37.96L159.95-37.96L159.95 0L137.86 0L137.86-35.30L137.86-35.30Q137.86-39.07 135.92-41.35L135.92-41.35L135.92-41.35Q133.98-43.62 130.43-43.62L130.43-43.62L130.43-43.62Q126.32-43.62 123.77-40.96L123.77-40.96L123.77-40.96Q121.21-38.30 121.21-34.41L121.21-34.41L121.21 0L99.12 0L99.12-58.61L117.22-58.61L118.66-49.73L118.66-49.73Q122.10-54.39 127.71-57.16L127.71-57.16L127.71-57.16Q133.31-59.94 139.53-59.94L139.53-59.94ZM211.12-77.70L211.12-77.70Q228.11-77.70 237.98-69.21L237.98-69.21L237.98-69.21Q247.86-60.72 247.86-44.95L247.86-44.95L224.44-44.95L224.44-44.95Q224.44-51.62 220.95-55.50L220.95-55.50L220.95-55.50Q217.45-59.38 211.01-59.38L211.01-59.38L211.01-59.38Q203.57-59.38 200.08-54.72L200.08-54.72L200.08-54.72Q196.58-50.06 196.58-41.74L196.58-41.74L196.58-34.63L196.58-34.63Q196.58-26.42 200.08-21.70L200.08-21.70L200.08-21.70Q203.57-16.98 210.79-16.98L210.79-16.98L210.79-16.98Q217.89-16.98 221.56-20.65L221.56-20.65L221.56-20.65Q225.22-24.31 225.22-30.97L225.22-30.97L247.86-30.97L247.86-30.97Q247.86-15.32 238.26-6.99L238.26-6.99L238.26-6.99Q228.66 1.33 211.12 1.33L211.12 1.33L211.12 1.33Q191.59 1.33 181.54-8.66L181.54-8.66L181.54-8.66Q171.50-18.65 171.50-38.18L171.50-38.18L171.50-38.18Q171.50-57.72 181.54-67.71L181.54-67.71L181.54-67.71Q191.59-77.70 211.12-77.70L211.12-77.70ZM281.61-52.50L281.61-52.50Q285.16-56.05 289.93-58.00L289.93-58.00L289.93-58.00Q294.70-59.94 299.92-59.94L299.92-59.94L299.92-59.94Q310.13-59.94 315.24-54.28L315.24-54.28L315.24-54.28Q320.35-48.62 320.35-37.96L320.35-37.96L320.35 0L298.26 0L298.26-35.30L298.26-35.30Q298.26-39.07 296.31-41.35L296.31-41.35L296.31-41.35Q294.37-43.62 290.82-43.62L290.82-43.62L290.82-43.62Q286.71-43.62 284.16-40.96L284.16-40.96L284.16-40.96Q281.61-38.30 281.61-34.41L281.61-34.41L281.61 0L259.52 0L259.52-80.47L281.61-80.47L281.61-52.50ZM362.53-59.94L362.53-59.94Q375.96-59.94 384.39-55.44L384.39-55.44L384.39-55.44Q392.83-50.95 392.83-40.85L392.83-40.85L392.83-17.98L392.83-17.98Q392.83-16.09 393.72-14.87L393.72-14.87L393.72-14.87Q394.61-13.65 396.38-13.65L396.38-13.65L400.38-13.65L400.38-0.89L400.38-0.89Q400.04-0.67 398.66-0.17L398.66-0.17L398.66-0.17Q397.27 0.33 394.72 0.83L394.72 0.83L394.72 0.83Q392.16 1.33 388.83 1.33L388.83 1.33L388.83 1.33Q382.39 1.33 378.23-0.61L378.23-0.61L378.23-0.61Q374.07-2.55 372.52-5.99L372.52-5.99L372.52-5.99Q368.30-2.66 363.08-0.67L363.08-0.67L363.08-0.67Q357.86 1.33 350.87 1.33L350.87 1.33L350.87 1.33Q330.22 1.33 330.22-15.10L330.22-15.10L330.22-15.10Q330.22-23.64 334.83-28.14L334.83-28.14L334.83-28.14Q339.44-32.63 348.10-34.30L348.10-34.30L348.10-34.30Q356.75-35.96 370.74-35.96L370.74-35.96L370.74-38.85L370.74-38.85Q370.74-42.29 368.35-44.07L368.35-44.07L368.35-44.07Q365.97-45.84 362.19-45.84L362.19-45.84L362.19-45.84Q358.75-45.84 356.25-44.62L356.25-44.62L356.25-44.62Q353.76-43.40 353.76-40.74L353.76-40.74L353.76-40.29L332.00-40.29L332.00-40.29Q331.89-40.85 331.89-41.85L331.89-41.85L331.89-41.85Q331.89-50.17 339.83-55.06L339.83-55.06L339.83-55.06Q347.76-59.94 362.53-59.94L362.53-59.94ZM370.74-25.53L370.74-25.53Q361.31-25.53 356.81-23.48L356.81-23.48L356.81-23.48Q352.31-21.42 352.31-17.98L352.31-17.98L352.31-17.98Q352.31-12.43 359.86-12.43L359.86-12.43L359.86-12.43Q364.19-12.43 367.47-14.76L367.47-14.76L367.47-14.76Q370.74-17.09 370.74-20.54L370.74-20.54L370.74-25.53ZM430.46-65.49L408.37-65.49L408.37-80.47L430.46-80.47L430.46-65.49ZM430.46 0L408.37 0L408.37-58.61L430.46-58.61L430.46 0ZM484.96-59.94L484.96-59.94Q495.17-59.94 500.28-54.28L500.28-54.28L500.28-54.28Q505.38-48.62 505.38-37.96L505.38-37.96L505.38 0L483.29 0L483.29-35.30L483.29-35.30Q483.29-39.07 481.35-41.35L481.35-41.35L481.35-41.35Q479.41-43.62 475.86-43.62L475.86-43.62L475.86-43.62Q471.75-43.62 469.20-40.96L469.20-40.96L469.20-40.96Q466.64-38.30 466.64-34.41L466.64-34.41L466.64 0L444.56 0L444.56-58.61L462.65-58.61L464.09-49.73L464.09-49.73Q467.53-54.39 473.14-57.16L473.14-57.16L473.14-57.16Q478.74-59.94 484.96-59.94L484.96-59.94ZM542.24 0L518.70 0L518.70-22.09L542.24-22.09L542.24 0ZM582.19-58.61L594.63-58.61L594.63-43.62L582.19-43.62L582.19-21.31L582.19-21.31Q582.19-17.32 583.53-15.48L583.53-15.48L583.53-15.48Q584.86-13.65 588.41-13.65L588.41-13.65L594.63-13.65L594.63-0.67L594.63-0.67Q591.96 0.22 587.75 0.78L587.75 0.78L587.75 0.78Q583.53 1.33 580.42 1.33L580.42 1.33L580.42 1.33Q570.65 1.33 565.38-2.22L565.38-2.22L565.38-2.22Q560.11-5.77 560.11-14.32L560.11-14.32L560.11-43.62L551.89-43.62L551.89-58.61L560.99-58.61L565.77-76.37L582.19-76.37L582.19-58.61ZM626.93-36.19L645.69-58.61L671.44-58.61L649.79-34.97L671.99 0L646.91 0L634.59-20.09L626.93-12.65L626.93 0L604.84 0L604.84-80.59L626.93-80.59L626.93-36.19Z" fill="url(#editing-outline-gradient)"></path></g></g><style>text {
  font-size: 64px;
  font-family: Arial Black;
  dominant-baseline: central;
  text-anchor: middle;
}</style></svg>