<svg width="446.498046875px" height="144.98113708496095px" xmlns="http://www.w3.org/2000/svg" viewBox="26.7509765625 2.5094314575195256 446.498046875 144.98113708496095" style="background: rgba(0, 0, 0, 0);" preserveAspectRatio="xMidYMid"><defs><linearGradient id="editing-outline-gradient" x1="0.8255681544571565" x2="0.17443184554284358" y1="-0.44551857559931685" y2="1.445518575599317"><stop offset="0" stop-color="#08eee4"></stop><stop offset="1" stop-color="#4139ff"></stop></linearGradient><filter id="editing-outline" x="-100%" y="-100%" width="300%" height="300%"><feMorphology in="SourceGraphic" operator="dilate" radius="8" result="outline"></feMorphology><feComposite operator="out" in="outline" in2="SourceAlpha"></feComposite></filter></defs><g filter="url(#editing-outline)"><g transform="translate(93.67001867294312, 100.05999946594238)"><path d="M28.29-47.60L28.29-47.60Q40.39-47.60 46.99-41.41L46.99-41.41L46.99-41.41Q53.58-35.22 53.58-23.39L53.58-23.39L53.58-23.39Q53.58-11.56 46.99-5.37L46.99-5.37L46.99-5.37Q40.39 0.82 28.29 0.82L28.29 0.82L28.29 0.82Q16.18 0.82 9.62-5.34L9.62-5.34L9.62-5.34Q3.06-11.49 3.06-23.39L3.06-23.39L3.06-23.39Q3.06-35.29 9.62-41.45L9.62-41.45L9.62-41.45Q16.18-47.60 28.29-47.60L28.29-47.60ZM28.29-36.38L28.29-36.38Q23.46-36.38 20.94-33.46L20.94-33.46L20.94-33.46Q18.43-30.53 18.43-25.57L18.43-25.57L18.43-21.22L18.43-21.22Q18.43-16.25 20.94-13.33L20.94-13.33L20.94-13.33Q23.46-10.40 28.29-10.40L28.29-10.40L28.29-10.40Q33.12-10.40 35.67-13.33L35.67-13.33L35.67-13.33Q38.22-16.25 38.22-21.22L38.22-21.22L38.22-25.57L38.22-25.57Q38.22-30.53 35.67-33.46L35.67-33.46L35.67-33.46Q33.12-36.38 28.29-36.38L28.29-36.38ZM85.48-36.72L85.48-36.72Q91.73-36.72 94.86-33.25L94.86-33.25L94.86-33.25Q97.99-29.78 97.99-23.26L97.99-23.26L97.99 0L84.46 0L84.46-21.62L84.46-21.62Q84.46-23.94 83.27-25.33L83.27-25.33L83.27-25.33Q82.08-26.72 79.90-26.72L79.90-26.72L79.90-26.72Q77.38-26.72 75.82-25.09L75.82-25.09L75.82-25.09Q74.26-23.46 74.26-21.08L74.26-21.08L74.26 0L60.72 0L60.72-35.90L71.81-35.90L72.69-30.46L72.69-30.46Q74.80-33.32 78.23-35.02L78.23-35.02L78.23-35.02Q81.67-36.72 85.48-36.72L85.48-36.72ZM129.34-47.60L129.34-47.60Q139.74-47.60 145.79-42.40L145.79-42.40L145.79-42.40Q151.84-37.20 151.84-27.54L151.84-27.54L137.50-27.54L137.50-27.54Q137.50-31.62 135.35-34L135.35-34L135.35-34Q133.21-36.38 129.27-36.38L129.27-36.38L129.27-36.38Q124.71-36.38 122.57-33.52L122.57-33.52L122.57-33.52Q120.43-30.67 120.43-25.57L120.43-25.57L120.43-21.22L120.43-21.22Q120.43-16.18 122.57-13.29L122.57-13.29L122.57-13.29Q124.71-10.40 129.13-10.40L129.13-10.40L129.13-10.40Q133.48-10.40 135.73-12.65L135.73-12.65L135.73-12.65Q137.97-14.89 137.97-18.97L137.97-18.97L151.84-18.97L151.84-18.97Q151.84-9.38 145.96-4.28L145.96-4.28L145.96-4.28Q140.08 0.82 129.34 0.82L129.34 0.82L129.34 0.82Q117.37 0.82 111.21-5.30L111.21-5.30L111.21-5.30Q105.06-11.42 105.06-23.39L105.06-23.39L105.06-23.39Q105.06-35.36 111.21-41.48L111.21-41.48L111.21-41.48Q117.37-47.60 129.34-47.60L129.34-47.60ZM172.52-32.16L172.52-32.16Q174.69-34.34 177.62-35.53L177.62-35.53L177.62-35.53Q180.54-36.72 183.74-36.72L183.74-36.72L183.74-36.72Q189.99-36.72 193.12-33.25L193.12-33.25L193.12-33.25Q196.25-29.78 196.25-23.26L196.25-23.26L196.25 0L182.72 0L182.72-21.62L182.72-21.62Q182.72-23.94 181.53-25.33L181.53-25.33L181.53-25.33Q180.34-26.72 178.16-26.72L178.16-26.72L178.16-26.72Q175.64-26.72 174.08-25.09L174.08-25.09L174.08-25.09Q172.52-23.46 172.52-21.08L172.52-21.08L172.52 0L158.98 0L158.98-49.30L172.52-49.30L172.52-32.16ZM222.09-36.72L222.09-36.72Q230.32-36.72 235.48-33.97L235.48-33.97L235.48-33.97Q240.65-31.21 240.65-25.02L240.65-25.02L240.65-11.02L240.65-11.02Q240.65-9.86 241.20-9.11L241.20-9.11L241.20-9.11Q241.74-8.36 242.83-8.36L242.83-8.36L245.28-8.36L245.28-0.54L245.28-0.54Q245.07-0.41 244.22-0.10L244.22-0.10L244.22-0.10Q243.37 0.20 241.81 0.51L241.81 0.51L241.81 0.51Q240.24 0.82 238.20 0.82L238.20 0.82L238.20 0.82Q234.26 0.82 231.71-0.37L231.71-0.37L231.71-0.37Q229.16-1.56 228.21-3.67L228.21-3.67L228.21-3.67Q225.62-1.63 222.43-0.41L222.43-0.41L222.43-0.41Q219.23 0.82 214.95 0.82L214.95 0.82L214.95 0.82Q202.30 0.82 202.30-9.25L202.30-9.25L202.30-9.25Q202.30-14.48 205.12-17.24L205.12-17.24L205.12-17.24Q207.94-19.99 213.25-21.01L213.25-21.01L213.25-21.01Q218.55-22.03 227.12-22.03L227.12-22.03L227.12-23.80L227.12-23.80Q227.12-25.91 225.66-27.00L225.66-27.00L225.66-27.00Q224.20-28.08 221.88-28.08L221.88-28.08L221.88-28.08Q219.78-28.08 218.25-27.34L218.25-27.34L218.25-27.34Q216.72-26.59 216.72-24.96L216.72-24.96L216.72-24.68L203.39-24.68L203.39-24.68Q203.32-25.02 203.32-25.64L203.32-25.64L203.32-25.64Q203.32-30.74 208.18-33.73L208.18-33.73L208.18-33.73Q213.04-36.72 222.09-36.72L222.09-36.72ZM227.12-15.64L227.12-15.64Q221.34-15.64 218.59-14.38L218.59-14.38L218.59-14.38Q215.83-13.12 215.83-11.02L215.83-11.02L215.83-11.02Q215.83-7.62 220.46-7.62L220.46-7.62L220.46-7.62Q223.11-7.62 225.11-9.04L225.11-9.04L225.11-9.04Q227.12-10.47 227.12-12.58L227.12-12.58L227.12-15.64ZM263.70-40.12L250.17-40.12L250.17-49.30L263.70-49.30L263.70-40.12ZM263.70 0L250.17 0L250.17-35.90L263.70-35.90L263.70 0ZM297.09-36.72L297.09-36.72Q303.35-36.72 306.48-33.25L306.48-33.25L306.48-33.25Q309.60-29.78 309.60-23.26L309.60-23.26L309.60 0L296.07 0L296.07-21.62L296.07-21.62Q296.07-23.94 294.88-25.33L294.88-25.33L294.88-25.33Q293.69-26.72 291.52-26.72L291.52-26.72L291.52-26.72Q289-26.72 287.44-25.09L287.44-25.09L287.44-25.09Q285.87-23.46 285.87-21.08L285.87-21.08L285.87 0L272.34 0L272.34-35.90L283.42-35.90L284.31-30.46L284.31-30.46Q286.42-33.32 289.85-35.02L289.85-35.02L289.85-35.02Q293.28-36.72 297.09-36.72L297.09-36.72Z" fill="url(#editing-outline-gradient)"></path></g></g><style>text {
  font-size: 64px;
  font-family: Arial Black;
  dominant-baseline: central;
  text-anchor: middle;
}</style></svg>